HIERARCHY
ROOT Hips
{
	OFFSET 0.00000 0.00000 0.00000
	CHANNELS 6 Xposition Yposition Zposition Zrotation Yrotation Xrotation 
	JOINT LHipJoint
	{
		OFFSET 0 0 0
		CHANNELS 3 Zrotation Yrotation Xrotation
		JOINT LeftUpLeg
		{
			OFFSET 1.81638 -1.86202 0.89635
			CHANNELS 3 Zrotation Yrotation Xrotation
			JOINT LeftLeg
			{
				OFFSET 2.63464 -7.23861 0.00000
				CHANNELS 3 Zrotation Yrotation Xrotation
				JOINT LeftFoot
				{
					OFFSET 2.45871 -6.75336 0.00000
					CHANNELS 3 Zrotation Yrotation Xrotation
					JOINT LeftToeBase
					{
						OFFSET 0.34235 -0.94059 2.20020
						CHANNELS 3 Zrotation Yrotation Xrotation
						End Site
						{
							OFFSET 0.00000 -0.00000 1.18611
						}
					}
				}
			}
		}
	}
	JOINT RHipJoint
	{
		OFFSET 0 0 0
		CHANNELS 3 Zrotation Yrotation Xrotation
		JOINT RightUpLeg
		{
			OFFSET -1.84405 -1.86203 0.89635
			CHANNELS 3 Zrotation Yrotation Xrotation
			JOINT RightLeg
			{
				OFFSET -2.71067 -7.44751 0.00000
				CHANNELS 3 Zrotation Yrotation Xrotation
				JOINT RightFoot
				{
					OFFSET -2.47159 -6.79060 0.00000
					CHANNELS 3 Zrotation Yrotation Xrotation
					JOINT RightToeBase
					{
						OFFSET -0.26223 -0.72048 2.36007
						CHANNELS 3 Zrotation Yrotation Xrotation
						End Site
						{
							OFFSET -0.00000 -0.00000 1.23343
						}
					}
				}
			}
		}
	}
	JOINT LowerBack
	{
		OFFSET 0 0 0
		CHANNELS 3 Zrotation Yrotation Xrotation
		JOINT Spine
		{
			OFFSET 0.02089 1.99248 -0.22512
			CHANNELS 3 Zrotation Yrotation Xrotation
			JOINT Spine1
			{
				OFFSET 0.01476 2.01356 -0.03079
				CHANNELS 3 Zrotation Yrotation Xrotation
				JOINT Neck
				{
					OFFSET 0 0 0
					CHANNELS 3 Zrotation Yrotation Xrotation
					JOINT Neck1
					{
						OFFSET 0.04846 1.65098 0.06663
						CHANNELS 3 Zrotation Yrotation Xrotation
						JOINT Head
						{
							OFFSET -0.06061 1.60634 -0.07565
							CHANNELS 3 Zrotation Yrotation Xrotation
							End Site
							{
								OFFSET -0.02954 1.73562 -0.03642
							}
						}
					}
				}
				JOINT LeftShoulder
				{
					OFFSET 0 0 0
					CHANNELS 3 Zrotation Yrotation Xrotation
					JOINT LeftArm
					{
						OFFSET 3.45234 1.47051 -0.06993
						CHANNELS 3 Zrotation Yrotation Xrotation
						JOINT LeftForeArm
						{
							OFFSET 5.49313 -0.00000 0.00000
							CHANNELS 3 Zrotation Yrotation Xrotation
							JOINT LeftHand
							{
								OFFSET 3.29037 -0.00000 0.00000
								CHANNELS 3 Zrotation Yrotation Xrotation
								JOINT LeftFingerBase
								{
									OFFSET 0 0 0
									CHANNELS 3 Zrotation Yrotation Xrotation
									JOINT LeftHandIndex1
									{
										OFFSET 0.72966 -0.00000 0.00000
										CHANNELS 3 Zrotation Yrotation Xrotation
										End Site
										{
											OFFSET 0.58827 -0.00000 0.00000
										}
									}
								}
								JOINT LThumb
								{
									OFFSET 0 0 0
									CHANNELS 3 Zrotation Yrotation Xrotation
									End Site
									{
										OFFSET 0.59725 -0.00000 0.59725
									}
								}
							}
						}
					}
				}
				JOINT RightShoulder
				{
					OFFSET 0 0 0
					CHANNELS 3 Zrotation Yrotation Xrotation
					JOINT RightArm
					{
						OFFSET -3.41935 1.44327 0.20453
						CHANNELS 3 Zrotation Yrotation Xrotation
						JOINT RightForeArm
						{
							OFFSET -5.23684 -0.00000 0.00000
							CHANNELS 3 Zrotation Yrotation Xrotation
							JOINT RightHand
							{
								OFFSET -3.38251 -0.00000 0.00000
								CHANNELS 3 Zrotation Yrotation Xrotation
								JOINT RightFingerBase
								{
									OFFSET 0 0 0
									CHANNELS 3 Zrotation Yrotation Xrotation
									JOINT RightHandIndex1
									{
										OFFSET -0.69145 -0.00000 0.00000
										CHANNELS 3 Zrotation Yrotation Xrotation
										End Site
										{
											OFFSET -0.55747 -0.00000 0.00000
										}
									}
								}
								JOINT RThumb
								{
									OFFSET 0 0 0
									CHANNELS 3 Zrotation Yrotation Xrotation
									End Site
									{
										OFFSET -0.56598 -0.00000 0.56598
									}
								}
							}
						}
					}
				}
			}
		}
	}
}
MOTION
Frames: 15
Frame Time: 0.133333
0.00 0.00 0.00 0 0 0 0 0 0 -21 0 0 0 0 0 0 0 0 0 0 0 0 0 0 21 0 0 0 0 0 0 0 0 0 0 0 0 0 0 0 0 0 0 0 0 0 0 -16 0 0 21 0 0 11 0 0 0 -8 0 0 0 0 0 0 0 0 0 0 0 0 0 0 0 0 0 0 0 0 8 0 0 0 0 0 0 0 0 0 0 0 0 0 0 0 0 0
0.00 0.00 0.00 -38.0553 82.1882 -29.3301 0.0000 0.0000 0.0000 -14.3176 -3.2938 -25.0027 4.8702 13.2361 40.2590 1.8719 -6.7494 -24.5933 0.2099 -2.9495 -8.1383 0.0000 0.0000 0.0000 24.5061 -6.0580 -6.1415 -2.8847 -10.5060 30.6314 -1.4580 -9.5776 -28.0624 -0.1971 2.8590 -7.8864 -6.6014 2.2869 17.8038 -2.6832 2.2179 6.8651 0.4427 1.2249 -2.6996 3.4381 1.2985 -3.4571 3.4930 1.5782 0.8870 0.5301 0.8700 0.8398 -0.0000 -0.0000 0.0000 -76.0240 9.5534 25.4776 29.6389 -40.5819 -11.1740 -0.0000 0.0000 -1.8701 0.3974 11.5359 0.0795 -7.1250 0.0000 -0.0000 -23.2813 40.3397 2.8537 -0.0000 -0.0000 0.0000 67.5053 -17.3537 48.2726 -28.8828 39.9163 -10.6854 0.0000 -0.0000 -7.2817 -4.8715 -16.4615 1.3835 7.1250 -0.0000 -0.0000 21.2505 -45.3625 -0.1993
0.00 0.00 0.00 -30.6975 82.4775 -21.6968 0.0000 0.0000 0.0000 -16.2775 -2.6202 -21.3501 4.1313 12.3331 36.9208 2.0212 -6.0302 -25.6556 0.1945 -2.8402 -7.8343 0.0000 0.0000 0.0000 22.2558 -5.2153 -16.7980 -6.3936 -14.7992 46.5417 -1.5540 -4.3874 -25.4778 -0.2626 3.2970 -9.1068 -8.4201 2.1176 18.8490 -2.9931 1.6585 7.2891 1.2186 0.9488 -2.7614 3.9966 1.3973 -3.2531 3.2668 1.7403 0.0737 0.3654 0.9304 0.5585 0.0000 -0.0000 0.0000 -75.3080 7.6341 24.8622 32.5410 -42.9743 -13.1081 -0.0000 0.0000 -3.2187 3.1473 11.1093 0.6070 -7.1250 0.0000 -0.0000 -20.8633 40.1868 2.6067 0.0000 -0.0000 0.0000 67.1621 -16.2380 46.1973 -28.7621 39.8084 -10.6081 0.0000 -0.0000 -8.3924 -5.9271 -16.7408 1.7129 7.1250 -0.0000 -0.0000 20.4261 -45.7515 -0.3954
0.00 0.00 0.00 -33.2646 81.5269 -21.0434 0.0000 0.0000 0.0000 -17.4652 -2.0818 -7.6895 1.6215 8.0287 22.8014 2.0150 -0.3838 -26.7635 0.3165 -3.6163 -9.9997 0.0000 0.0000 0.0000 20.2472 10.0929 -37.2124 -4.0822 -12.2690 36.6904 -1.6991 0.2537 -24.5925 -0.5220 4.6304 -12.8573 -6.7407 0.1715 20.3584 -0.5971 -0.7319 6.5632 3.3520 -0.2173 -4.1398 8.1507 2.4432 -1.8829 -3.7796 3.1113 -1.9395 -2.5917 1.5207 -0.0889 -0.0000 -0.0000 0.0000 -70.9555 7.4611 28.1328 45.4779 -51.0005 -22.6096 -0.0000 0.0000 -7.0881 5.9631 11.3144 1.1740 -7.1250 0.0000 -0.0000 -18.5623 40.6263 2.0838 -0.0000 -0.0000 0.0000 67.0406 -17.1617 43.2953 -28.0713 39.1818 -10.1687 0.0000 -0.0000 -7.1909 -6.0438 -15.9295 1.6645 7.1250 -0.0000 -0.0000 20.0153 -45.0030 -0.0015
0.00 0.00 0.00 -3.2344 94.3194 10.8593 0.0000 0.0000 0.0000 -15.2783 -0.9608 -13.9783 5.3562 13.7741 42.3398 -0.4675 -20.4884 -10.2871 0.7405 -5.4972 -15.3324 0.0000 0.0000 0.0000 16.4475 11.2019 -33.2492 -3.7835 -11.8666 35.2617 -0.5607 -5.9959 -17.5967 -0.0020 -0.2918 0.8017 0.1733 -2.5791 20.4975 3.6223 -2.6453 5.5724 4.4272 -1.1202 -5.2245 10.0756 0.4490 -2.2546 -12.5495 0.2520 -3.1511 -5.4444 0.1173 -0.5094 -0.0000 0.0000 0.0000 -80.0076 13.9352 32.5422 34.1168 -44.1710 -14.1944 -0.0000 -0.0000 6.6180 16.1403 14.7024 4.2007 -7.1250 0.0000 -0.0000 -10.5862 44.9914 0.0023 -0.0000 0.0000 0.0000 70.5499 -22.6518 35.4515 -23.1083 34.2070 -7.1991 0.0000 -0.0000 -2.4214 -4.9780 -17.7285 1.5193 7.1250 -0.0000 -0.0000 21.6670 -46.5551 -0.8717
0.00 0.00 0.00 22.2721 93.4350 37.2941 0.0000 0.0000 0.0000 -11.7233 -0.8426 -27.2838 10.0862 17.4581 59.7762 -0.7655 -20.6105 -7.2643 0.0762 -1.7803 -4.8988 0.0000 0.0000 0.0000 19.5775 10.5785 -28.5158 -3.1056 -10.8640 31.8226 -0.8052 -4.7005 -19.2915 -0.0000 0.0386 -0.1060 3.7327 -0.9061 20.9469 4.5271 0.3957 5.8715 2.6292 0.3699 -5.3363 10.1471 -0.4770 -3.5461 -13.4915 -1.1027 -3.3048 -5.7607 -0.5808 -0.4981 -0.0000 0.0000 0.0000 -84.0508 17.8710 34.1050 28.2469 -39.3425 -10.2798 -0.0000 -0.0000 5.2382 10.9183 16.6751 3.1682 -7.1250 0.0000 -0.0000 -15.9239 46.3090 -0.5276 -0.0000 0.0000 0.0000 70.8573 -20.1384 37.4869 -21.7210 32.6603 -6.4347 0.0000 0.0000 3.1813 6.7622 -17.6960 -2.0642 7.1250 -0.0000 -0.0000 31.7798 -45.0589 -0.0516
0.00 0.00 0.00 104.9320 92.1807 120.7530 0.0000 0.0000 0.0000 -11.8678 -6.1911 -40.0065 6.0878 14.5129 45.3331 0.1094 -14.0018 -11.0818 0.6533 -5.1702 -14.3946 0.0000 0.0000 0.0000 22.6503 7.5086 -13.7000 -1.1350 -6.7660 19.0239 -0.7733 -2.9090 -17.9123 -0.0277 1.0745 -2.9538 3.0020 1.7461 20.3769 2.7369 3.4224 5.1796 0.3677 1.7790 -5.7614 9.8118 0.2687 -3.2993 -11.6508 -0.0452 -3.1590 -5.1215 -0.0604 -0.3783 0.0000 -0.0000 0.0000 -83.1579 27.3485 35.1633 23.2153 -34.3234 -7.2593 -0.0000 -0.0000 2.2781 -3.7173 21.1169 -1.3409 -7.1250 0.0000 -0.0000 -30.9944 48.4123 -2.8662 0.0000 -0.0000 0.0000 72.2117 -16.9214 38.2978 -29.5266 40.4842 -11.1010 0.0000 -0.0000 -6.8465 -14.4298 -14.5122 3.6892 7.1250 -0.0000 -0.0000 12.0822 -44.5993 0.1213
0.00 0.00 0.00 138.9550 102.4220 150.9560 0.0000 0.0000 0.0000 -9.3848 -2.4832 -26.5749 3.8273 11.9270 35.4742 1.2199 -1.3716 -20.4738 0.1262 -2.2903 -6.3087 0.0000 0.0000 0.0000 25.1714 4.1428 -6.4587 -2.8596 -10.4642 30.4934 0.0104 6.7021 -4.4320 -1.1862 6.9116 -19.4539 0.5219 1.1949 17.6261 0.0508 1.9122 5.3856 -0.6450 1.0464 -4.0874 10.1042 3.8141 -2.2189 -6.3968 4.8900 0.1582 -3.8086 2.4206 0.8963 -0.0000 0.0000 0.0000 -78.5242 25.4612 30.7957 24.1453 -35.3176 -7.7904 -0.0000 -0.0000 0.4997 -6.9965 14.9247 -1.8104 -7.1250 0.0000 -0.0000 -30.6624 42.6327 1.9987 -0.0000 0.0000 0.0000 71.7690 -18.8530 40.1563 -37.0964 46.2523 -16.3096 0.0000 -0.0000 -15.4511 -9.8390 -13.1835 2.2651 7.1250 -0.0000 -0.0000 15.7777 -42.7907 0.8839
0.00 0.00 0.00 149.0960 104.5590 159.3070 0.0000 0.0000 0.0000 -12.1192 0.1246 -19.8445 3.3465 11.2360 33.0798 1.8426 0.8574 -25.9977 0.0825 -1.8525 -5.0982 0.0000 0.0000 0.0000 22.2444 6.0624 -11.2116 -6.2124 -14.6310 45.8282 0.0798 5.9440 -1.2521 -1.1658 6.8541 -19.2839 -2.3926 0.7667 18.4069 -1.0213 0.7955 5.6586 0.0946 0.5104 -4.2353 9.5528 4.8519 -1.6794 -5.1891 6.3206 -0.6288 -3.2601 3.1404 0.6027 -0.0000 -0.0000 0.0000 -76.3192 23.0345 30.7504 25.7431 -36.9539 -8.7327 -0.0000 -0.0000 0.1597 -5.0628 13.2192 -1.1606 -7.1250 0.0000 -0.0000 -28.3710 41.3389 2.8201 -0.0000 -0.0000 0.0000 71.2999 -19.7870 39.6104 -35.3633 45.0698 -15.0700 0.0000 -0.0000 -14.6537 -10.8668 -13.5114 2.5681 7.1250 -0.0000 -0.0000 14.9719 -43.2166 0.6751
0.00 0.00 0.00 161.6330 103.7270 171.1440 0.0000 0.0000 0.0000 -16.6657 1.9317 -14.7885 2.9914 10.6811 31.2118 2.2387 0.0041 -28.3502 0.1225 -2.2568 -6.2158 0.0000 0.0000 0.0000 17.6763 8.4517 -21.0481 -11.0003 -17.9352 62.7825 -0.1544 5.1292 -7.3512 -0.5923 4.9272 -13.7009 -6.9616 0.1291 19.1375 -2.3145 -0.9433 5.6856 1.6784 -0.3101 -4.4635 8.0210 5.2899 -1.3293 -3.8469 6.9580 -1.8366 -2.5372 3.4548 0.0885 -0.0000 -0.0000 0.0000 -72.6047 15.2730 26.0230 27.3760 -38.5354 -9.7325 -0.0000 -0.0000 3.5800 -1.1110 11.9745 -0.2305 -7.1250 0.0000 -0.0000 -24.6748 40.6032 2.8766 -0.0000 -0.0000 0.0000 72.9969 -21.8738 36.2845 -29.2754 40.2641 -10.9382 0.0000 -0.0000 -9.9128 -16.0174 -16.8136 4.7469 7.1250 -0.0000 -0.0000 11.2892 -47.1113 -0.5955
0.00 0.00 0.00 167.2470 96.8994 180.2860 0.0000 0.0000 0.0000 -18.3424 5.0641 -2.0551 1.3125 7.2567 20.4781 0.4152 -8.2409 -12.0282 1.8908 -8.6349 -24.6597 0.0000 0.0000 0.0000 20.0305 10.9041 -33.9850 -2.1729 -9.2174 26.4776 -1.2853 1.9219 -20.8878 -0.4324 4.2199 -11.6961 -5.2962 -1.7016 19.0913 0.1409 -2.9630 4.8138 3.8254 -1.2954 -5.1766 7.0206 3.7477 -2.5395 -6.0779 4.8480 -0.3287 -3.1021 2.3908 0.6878 -0.0000 0.0000 0.0000 -72.7012 6.9917 25.4927 58.3041 -55.8408 -32.9339 -0.0000 0.0000 -4.4193 27.7691 1.4841 0.7813 -7.1250 0.0000 -0.0000 0.9579 31.6559 -0.3127 -0.0000 0.0000 0.0000 74.6023 -29.4420 33.9275 -20.9167 31.7310 -6.0061 0.0000 0.0000 7.1433 14.0954 -18.6088 -4.5811 7.1250 -0.0000 -0.0000 38.2073 -44.8935 0.1186
0.00 0.00 0.00 232.8070 91.6162 244.4750 0.0000 0.0000 0.0000 -16.3801 4.8360 -8.9291 5.0368 13.4251 40.9815 -0.7002 -14.6413 6.1194 1.6174 -8.0190 -22.7718 0.0000 0.0000 0.0000 17.5623 13.1249 -31.1427 -2.3289 -9.5199 27.4355 -0.4264 -2.0752 -13.2665 -0.0051 0.4610 -1.2666 -2.3471 -2.1897 20.5600 1.9264 -2.8482 5.3251 4.0950 -1.2259 -5.4689 7.8521 2.2584 -3.5058 -9.6641 2.8721 0.3626 -4.5724 1.3673 1.0393 0.0000 0.0000 0.0000 -75.7590 9.0772 29.4715 55.1656 -54.8777 -30.3514 -0.0000 0.0000 -4.8159 23.8739 2.7594 1.2206 -7.1250 0.0000 -0.0000 -2.2149 32.9913 0.6521 0.0000 0.0000 0.0000 75.0821 -30.7229 35.4189 -21.8072 32.7584 -6.4812 0.0000 0.0000 0.7883 17.2445 -19.2683 -5.8484 7.1250 -0.0000 -0.0000 41.0354 -45.0088 -0.0108
0.00 0.00 0.00 333.0370 98.4009 337.5650 0.0000 0.0000 0.0000 -18.8467 2.2351 2.4494 3.5431 11.5262 34.0759 -0.7258 -18.2790 -4.6346 1.3722 -7.4134 -20.9461 0.0000 0.0000 0.0000 9.6067 11.5021 -29.4564 -1.4327 -7.5682 21.4099 -0.5503 -10.3045 -21.3124 -0.1259 2.2875 -6.3008 -4.9974 -2.4169 19.3758 1.4073 -3.6491 5.4702 5.1527 -1.6299 -4.4750 5.8860 -0.4797 -4.9255 -7.0398 -0.5700 6.3014 -3.4294 -0.3649 2.9050 0.0000 -0.0000 0.0000 -67.3255 -3.1718 33.1109 79.9624 -59.6158 -51.3184 -0.0000 0.0000 -7.9550 14.8080 4.0712 1.0752 -7.1250 0.0000 -0.0000 -9.7022 34.0668 2.6343 0.0000 -0.0000 0.0000 71.3872 -25.1678 37.3342 -24.3085 35.4888 -7.8849 0.0000 -0.0000 -0.7404 -4.1393 -17.5086 1.2473 7.1250 -0.0000 -0.0000 22.3204 -46.2450 -0.7214
0.00 0.00 0.00 503.7540 104.7380 507.0050 0.0000 0.0000 0.0000 -1.1811 -9.7376 -30.4178 2.3615 9.5816 27.6323 0.0771 2.6681 -6.9274 0.4881 -4.4796 -12.4299 0.0000 0.0000 0.0000 27.4133 9.3018 6.8356 -1.2006 -6.9520 19.5733 -1.6237 0.2132 -24.0484 -0.0805 1.8303 -5.0370 6.1496 2.4334 20.3862 1.5990 4.8641 7.2629 -2.8611 2.6309 -3.1252 10.6791 3.1112 -2.1067 -10.5953 4.0952 1.5427 -4.8494 1.9947 1.2421 0.0000 0.0000 0.0000 -80.2457 23.7615 32.3365 30.6910 -41.4784 -11.8647 -0.0000 0.0000 -2.1195 -14.3580 15.0274 -3.7971 -7.1250 0.0000 -0.0000 -36.5024 41.8894 3.3027 0.0000 0.0000 0.0000 73.3607 -12.4025 40.4721 -48.1165 52.2070 -24.6777 0.0000 -0.0000 -7.9538 -10.3241 -15.4826 2.7840 7.1250 -0.0000 -0.0000 16.0585 -45.0781 -0.0318
0.00 0.00 0.00 507.5660 105.9340 515.9860 0.0000 0.0000 0.0000 -6.0842 -3.3404 -38.5291 5.1872 13.5915 41.6252 0.3983 -5.1307 -11.2675 0.1318 -2.3405 -6.4476 0.0000 0.0000 0.0000 22.6231 6.2469 14.1868 -0.0999 -2.0383 5.6116 -0.7374 -0.2545 -16.3228 -0.2823 3.4174 -9.4430 1.7347 1.9834 20.1571 -0.2243 3.2530 6.6044 -1.9801 1.7525 -4.0017 9.5380 5.0372 -2.9001 -7.5743 6.5160 0.5968 -4.0403 3.2161 1.3402 0.0000 0.0000 0.0000 -72.1779 5.1468 23.6813 46.4262 -51.4483 -23.3489 -0.0000 0.0000 -3.7398 17.8118 8.6386 2.7629 -7.1250 0.0000 -0.0000 -7.8608 38.9324 1.1836 0.0000 0.0000 0.0000 76.9489 -10.1500 38.7359 -35.1156 44.8945 -14.8949 0.0000 0.0000 2.7222 -9.6475 -16.3156 2.7341 7.1250 -0.0000 -0.0000 16.9466 -45.8027 -0.3457
